<svg class="hover-svg logo-img" width="335" height="68" viewBox="0 0 335 68" xmlns="http://www.w3.org/2000/svg"><path d="M171.1 23.3v-4.8h-17.3v47.8H172V43c0-6.3 3.1-9.5 9.3-9.5 1.2 0 2.6.1 4 .3v-16c-6.2 0-11 1.8-14.2 5.5zm33.5 0v-4.8h-17.3v47.8h18.2V43c0-6.3 3.1-9.5 9.3-9.5 1.2 0 2.6.1 4 .3v-16c-6.2 0-11 1.8-14.2 5.5zm51.8-2.7c-3.7-1.9-7.8-2.9-12.2-2.9-4.7 0-9 1-12.8 3.1-3.8 2.1-6.8 5-8.9 8.7-2.2 3.7-3.3 8-3.3 12.7 0 4.7 1.1 8.9 3.3 12.6 2.2 3.8 5.3 6.7 9.3 8.8 4 2.1 8.7 3.2 14 3.2 8.5 0 15-2.5 19.3-7.6l-9.5-10.3c-1.6 1.3-3 2.2-4.3 2.7-1.3.5-2.9.8-4.9.8-2.3 0-4.1-.5-5.6-1.4-1.5-1-2.6-2.3-3.2-4.1h30.6c.2-2.8.2-4.3.2-4.6 0-5.1-1.1-9.6-3.3-13.2-2.1-3.8-5-6.6-8.7-8.5zm-19.1 16.8c.4-2 1.2-3.6 2.4-4.7s2.8-1.6 4.7-1.6c1.9 0 3.4.6 4.7 1.7 1.2 1.1 2 2.7 2.4 4.6h-14.2zM271 .8h18.2v65.6H271V.8zm60.2 41.1c-1.9-2.1-4.1-3.5-6.6-4.2-2.5-.7-5.5-1.4-9.1-1.8-2.3-.3-4-.6-5.1-.9-1.1-.3-1.6-.9-1.6-1.6 0-1.5 2-2.3 6-2.3 4.6 0 8.9 1.2 12.7 3.5l5-12.9c-2.3-1.3-5-2.2-8.2-2.9-3.2-.7-6.5-1-9.8-1-4.8 0-8.9.7-12.3 2.2-3.4 1.4-6 3.4-7.7 5.8-1.7 2.4-2.6 5.2-2.6 8.2 0 3.9 1 6.8 2.9 8.9 1.9 2.1 4.1 3.5 6.6 4.2 2.5.7 5.6 1.3 9.2 1.8 2.4.3 4.1.6 5.1.9 1 .3 1.6.8 1.6 1.6s-.4 1.3-1.2 1.7c-.8.4-2.3.6-4.4.6-2.6 0-5.3-.4-8.1-1.1-2.8-.7-5.2-1.8-7.3-3.1l-5 12.9c2.3 1.4 5.2 2.5 8.9 3.4 3.7.9 7.4 1.3 11.1 1.3 4.9 0 9.1-.7 12.5-2.2 3.4-1.4 6-3.4 7.7-5.8 1.7-2.4 2.6-5.1 2.6-8.1 0-4-1-7-2.9-9.1z" fill="#FFF"/><path d="M55.1 49.5v16.9H4.3V53l22.9-21.6c2-1.9 3.3-3.5 4-4.9.7-1.4 1-2.7 1-4 0-1.6-.5-2.8-1.6-3.7-1.1-.9-2.6-1.3-4.6-1.3-1.9 0-3.7.5-5.4 1.6-1.7 1-3 2.5-3.9 4.4L.6 15.2C3 10.6 6.5 7 11.2 4.3c4.6-2.7 10.3-4 16.8-4 5 0 9.5.8 13.3 2.5 3.9 1.7 6.9 4 9.1 7.1 2.2 3.1 3.3 6.6 3.3 10.6 0 3.6-.7 6.9-2.2 10-1.5 3.1-4.4 6.6-8.7 10.6l-9.1 8.4h21.4z" fill="#F26922"/><path d="M133.9 18.6v1.7c-.3-.2-.6-.3-.9-.5-7-3-14.5-2.3-20.8 1.9-2.8 1.9-7.1 6.7-7.3 6.9l-.2.3.2.2s7 7.5 10.6 11.3l.3.3 1.3-1.4c.7-.8 1.5-1.6 2.2-2.4 1.6-1.7 3.6-2.5 5.9-2.2 3.1.3 5.7 2.7 6.4 6 .7 3.2-.6 6.6-3.3 8.3-2.9 1.9-6.5 1.4-9-1.2-2.3-2.4-4.5-4.8-6.8-7.2-4.8-5.1-9.7-10.3-14.6-15.4-5.9-6.2-13-8.4-21.1-6.7h-.1V.8H58.5v44.4l.1-.1c.1.7.2 1.4.3 2.2 1.5 8 6.7 14.6 13.9 17.7 6.8 3 14.3 2.4 20.5-1.6 3-1.9 7.5-6.9 7.7-7.2l.2-.3-11-11.7-.3.3s-.5.5-1.1 1.2L86.6 48c-2.4 2.6-6.3 3-9.2.9-2.9-2.1-4-6.1-2.6-9.4 1-2.4 3-4.1 5.4-4.6 2.4-.5 4.7.3 6.5 2.2 2.5 2.6 5 5.3 7.5 8 4.5 4.8 9.2 9.8 13.9 14.7 4.6 4.8 9.9 7.2 15.8 7.2 1.7 0 3.5-.2 5.3-.6 2-.4 3.5-1 4.6-1.7v1.8h16.3V18.6h-16.2z" fill="#FFF"/></svg>