<?xml version="1.0" standalone="no"?>
<!DOCTYPE svg PUBLIC "-//W3C//DTD SVG 20010904//EN"
 "http://www.w3.org/TR/2001/REC-SVG-20010904/DTD/svg10.dtd">
<svg version="1.0" xmlns="http://www.w3.org/2000/svg"
 width="661.000000pt" height="661.000000pt" viewBox="0 0 661.000000 661.000000"
 preserveAspectRatio="xMidYMid meet">
<metadata>
Created by potrace 1.11, written by Peter Selinger 2001-2013
</metadata>
<g transform="translate(0.000000,661.000000) scale(0.100000,-0.100000)"
fill="#000000" stroke="none">
<path d="M0 3305 l0 -3305 3305 0 3305 0 0 3305 0 3305 -3305 0 -3305 0 0
-3305z m4345 2845 c106 -19 273 -66 345 -97 283 -124 466 -247 652 -440 240
-250 391 -544 455 -886 21 -116 24 -398 4 -507 -99 -555 -441 -987 -929 -1175
-183 -70 -284 -90 -1402 -270 -609 -98 -1119 -182 -1174 -195 -108 -24 -219
-97 -289 -189 -245 -327 -34 -804 388 -878 306 -53 578 135 627 432 12 77 4
142 -42 345 -21 91 -36 168 -33 172 4 9 -20 4 408 73 187 30 411 67 498 81 88
14 161 23 164 20 6 -6 45 -167 80 -336 24 -112 27 -147 27 -335 1 -180 -3
-224 -22 -311 -47 -215 -129 -407 -244 -569 -82 -117 -250 -284 -364 -364
-284 -198 -592 -295 -939 -295 -279 0 -518 60 -789 196 -243 122 -485 331
-651 563 -74 103 -191 333 -229 450 -134 417 -107 808 83 1200 210 432 589
714 1091 814 171 33 626 109 1240 206 124 19 324 51 445 70 121 20 265 42 320
51 316 49 388 75 494 181 114 115 158 232 148 398 -22 405 -476 667 -838 484
-120 -60 -221 -181 -261 -312 -30 -100 -21 -225 30 -424 21 -84 36 -156 33
-161 -3 -4 -69 -18 -146 -30 -77 -12 -266 -42 -420 -67 -402 -65 -494 -79
-499 -74 -5 5 -28 102 -72 309 -57 266 -61 488 -13 705 73 326 258 626 512
831 373 299 834 417 1312 334z"/>
</g>
</svg>
