<svg version="1.0" xmlns="http://www.w3.org/2000/svg" width="881.333" height="881.333" viewBox="0 0 661 661"><path d="M0 330.5V661h661V0H0v330.5zM434.5 46c10.6 1.9 27.3 6.6 34.5 9.7 28.3 12.4 46.6 24.7 65.2 44 24 25 39.1 54.4 45.5 88.6 2.1 11.6 2.4 39.8.4 50.7-9.9 55.5-44.1 98.7-92.9 117.5-18.3 7-28.4 9-140.2 27-60.9 9.8-111.9 18.2-117.4 19.5-10.8 2.4-21.9 9.7-28.9 18.9-24.5 32.7-3.4 80.4 38.8 87.8 30.6 5.3 57.8-13.5 62.7-43.2 1.2-7.7.4-14.2-4.2-34.5-2.1-9.1-3.6-16.8-3.3-17.2.4-.9-2-.4 40.8-7.3 18.7-3 41.1-6.7 49.8-8.1 8.8-1.4 16.1-2.3 16.4-2 .6.6 4.5 16.7 8 33.6 2.4 11.2 2.7 14.7 2.7 33.5.1 18-.3 22.4-2.2 31.1-4.7 21.5-12.9 40.7-24.4 56.9-8.2 11.7-25 28.4-36.4 36.4-28.4 19.8-59.2 29.5-93.9 29.5-27.9 0-51.8-6-78.9-19.6-24.3-12.2-48.5-33.1-65.1-56.3-7.4-10.3-19.1-33.3-22.9-45-13.4-41.7-10.7-80.8 8.3-120 21-43.2 58.9-71.4 109.1-81.4 17.1-3.3 62.6-10.9 124-20.6 12.4-1.9 32.4-5.1 44.5-7 12.1-2 26.5-4.2 32-5.1 31.6-4.9 38.8-7.5 49.4-18.1 11.4-11.5 15.8-23.2 14.8-39.8-2.2-40.5-47.6-66.7-83.8-48.4-12 6-22.1 18.1-26.1 31.2-3 10-2.1 22.5 3 42.4 2.1 8.4 3.6 15.6 3.3 16.1-.3.4-6.9 1.8-14.6 3-7.7 1.2-26.6 4.2-42 6.7-40.2 6.5-49.4 7.9-49.9 7.4s-2.8-10.2-7.2-30.9c-5.7-26.6-6.1-48.8-1.3-70.5 7.3-32.6 25.8-62.6 51.2-83.1 37.3-29.9 83.4-41.7 131.2-33.4z"/></svg>